<svg xmlns="http://www.w3.org/2000/svg" viewBox="0 0 600 360" fill="none">
  <rect width="600" height="360" rx="24" fill="#0b1120"/>
  <circle cx="120" cy="140" r="28" fill="#111827" stroke="#1f2937"/>
  <text x="120" y="146" text-anchor="middle" font-family="Inter, Arial" font-size="12" fill="#93c5fd">Scan</text>

  <circle cx="300" cy="180" r="32" fill="#111827" stroke="#1f2937"/>
  <text x="300" y="186" text-anchor="middle" font-family="Inter, Arial" font-size="12" fill="#a7f3d0">WCAG</text>

  <circle cx="480" cy="220" r="28" fill="#111827" stroke="#1f2937"/>
  <text x="480" y="226" text-anchor="middle" font-family="Inter, Arial" font-size="12" fill="#f9a8d4">PDF</text>

  <path d="M148 150 C200 160 240 168 268 176" stroke="#1f2937" stroke-width="3" fill="none"/>
  <path d="M332 188 C380 200 420 210 452 218" stroke="#1f2937" stroke-width="3" fill="none"/>

  <circle cx="210" cy="90" r="18" fill="#111827" stroke="#1f2937"/>
  <text x="210" y="96" text-anchor="middle" font-family="Inter, Arial" font-size="10" fill="#fde68a">UI</text>
  <path d="M132 128 C160 110 180 100 196 96" stroke="#1f2937" stroke-width="2" fill="none"/>

  <circle cx="390" cy="120" r="18" fill="#111827" stroke="#1f2937"/>
  <text x="390" y="126" text-anchor="middle" font-family="Inter, Arial" font-size="10" fill="#fca5a5">Dev</text>
  <path d="M320 154 C350 140 368 130 378 126" stroke="#1f2937" stroke-width="2" fill="none"/>
</svg>
