<svg xmlns="http://www.w3.org/2000/svg" viewBox="0 0 600 360" fill="none">
  <defs>
    <linearGradient id="bg" x1="0" y1="0" x2="1" y2="1">
      <stop offset="0%" stop-color="#0f172a"/>
      <stop offset="100%" stop-color="#0b1220"/>
    </linearGradient>
    <linearGradient id="pill" x1="0" y1="0" x2="1" y2="1">
      <stop offset="0%" stop-color="#1f2937"/>
      <stop offset="100%" stop-color="#111827"/>
    </linearGradient>
  </defs>
  <rect x="0" y="0" width="600" height="360" rx="24" fill="url(#bg)"/>
  <g font-family="Inter, Arial" font-size="22" font-weight="600">
    <rect x="60" y="60" width="130" height="64" rx="16" fill="url(#pill)" stroke="#1f2937"/>
    <text x="125" y="100" text-anchor="middle" fill="#f8fafc">PNG</text>

    <rect x="220" y="60" width="130" height="64" rx="16" fill="url(#pill)" stroke="#1f2937"/>
    <text x="285" y="100" text-anchor="middle" fill="#f8fafc">JPG</text>

    <rect x="380" y="60" width="130" height="64" rx="16" fill="url(#pill)" stroke="#1f2937"/>
    <text x="445" y="100" text-anchor="middle" fill="#f8fafc">PDF</text>

    <rect x="60" y="150" width="130" height="64" rx="16" fill="url(#pill)" stroke="#1f2937"/>
    <text x="125" y="190" text-anchor="middle" fill="#f8fafc">FIG</text>

    <rect x="220" y="150" width="130" height="64" rx="16" fill="url(#pill)" stroke="#1f2937"/>
    <text x="285" y="190" text-anchor="middle" fill="#f8fafc">CSV</text>

    <rect x="380" y="150" width="130" height="64" rx="16" fill="url(#pill)" stroke="#1f2937"/>
    <text x="445" y="190" text-anchor="middle" fill="#f8fafc">DOC</text>

    <rect x="140" y="240" width="130" height="64" rx="16" fill="url(#pill)" stroke="#1f2937"/>
    <text x="205" y="280" text-anchor="middle" fill="#f8fafc">XLS</text>

    <rect x="300" y="240" width="130" height="64" rx="16" fill="url(#pill)" stroke="#1f2937"/>
    <text x="365" y="280" text-anchor="middle" fill="#f8fafc">JSON</text>
  </g>
</svg>
