<svg xmlns="http://www.w3.org/2000/svg" viewBox="0 0 600 360" fill="none">
  <defs>
    <radialGradient id="bg" cx="0.5" cy="0.5" r="0.6">
      <stop offset="0%" stop-color="#0b1220"/>
      <stop offset="100%" stop-color="#0a0f1a"/>
    </radialGradient>
  </defs>
  <rect width="600" height="360" rx="24" fill="url(#bg)"/>
  <circle cx="300" cy="180" r="90" fill="#0f172a" stroke="#1f2937"/>
  <circle cx="300" cy="180" r="40" fill="#111827" stroke="#1f2937"/>
  <text x="300" y="186" text-anchor="middle" font-family="Inter, Arial" font-size="16" fill="#f8fafc">WCAG</text>

  <circle cx="130" cy="90" r="24" fill="#111827" stroke="#1f2937"/>
  <text x="130" y="96" text-anchor="middle" font-family="Inter, Arial" font-size="14" fill="#38bdf8">FIG</text>

  <circle cx="470" cy="90" r="24" fill="#111827" stroke="#1f2937"/>
  <text x="470" y="96" text-anchor="middle" font-family="Inter, Arial" font-size="14" fill="#a3e635">API</text>

  <circle cx="110" cy="250" r="24" fill="#111827" stroke="#1f2937"/>
  <text x="110" y="256" text-anchor="middle" font-family="Inter, Arial" font-size="14" fill="#f472b6">PDF</text>

  <circle cx="490" cy="250" r="24" fill="#111827" stroke="#1f2937"/>
  <text x="490" y="256" text-anchor="middle" font-family="Inter, Arial" font-size="14" fill="#facc15">DEV</text>

  <path d="M300 90 C380 110 420 140 470 90" stroke="#1f2937" stroke-width="2" fill="none"/>
  <path d="M300 270 C220 250 180 220 110 250" stroke="#1f2937" stroke-width="2" fill="none"/>
  <path d="M300 180 C220 120 170 110 130 90" stroke="#1f2937" stroke-width="2" fill="none"/>
  <path d="M300 180 C380 120 430 110 470 90" stroke="#1f2937" stroke-width="2" fill="none"/>
  <path d="M300 180 C220 240 170 260 110 250" stroke="#1f2937" stroke-width="2" fill="none"/>
  <path d="M300 180 C380 240 430 260 490 250" stroke="#1f2937" stroke-width="2" fill="none"/>
</svg>
