<svg width="900" height="600" viewBox="0 0 900 600" fill="none" xmlns="http://www.w3.org/2000/svg">
  <rect width="900" height="600" rx="36" fill="#0B1211"/>
  <rect x="90" y="80" width="720" height="440" rx="28" fill="#0F172A" stroke="#1F2937"/>
  <rect x="130" y="120" width="120" height="18" rx="9" fill="#1F2937"/>
  <rect x="130" y="160" width="200" height="12" rx="6" fill="#1F2937"/>
  <rect x="130" y="210" width="300" height="180" rx="24" fill="#111827" stroke="#1F2937"/>
  <rect x="460" y="210" width="280" height="90" rx="20" fill="#111827" stroke="#1F2937"/>
  <rect x="460" y="320" width="280" height="90" rx="20" fill="#111827" stroke="#1F2937"/>
  <rect x="160" y="240" width="240" height="18" rx="9" fill="#334155"/>
  <rect x="160" y="270" width="200" height="12" rx="6" fill="#1F2937"/>
  <rect x="160" y="295" width="180" height="12" rx="6" fill="#1F2937"/>
  <rect x="500" y="235" width="200" height="12" rx="6" fill="#334155"/>
  <rect x="500" y="260" width="160" height="10" rx="5" fill="#1F2937"/>
  <rect x="500" y="345" width="200" height="12" rx="6" fill="#334155"/>
  <rect x="500" y="370" width="160" height="10" rx="5" fill="#1F2937"/>
  <rect x="180" y="430" width="200" height="50" rx="18" fill="#038759"/>
  <circle cx="640" cy="170" r="36" fill="#038759"/>
  <path d="M630 170 L638 178 L652 158" stroke="#E6FFFB" stroke-width="4" stroke-linecap="round" stroke-linejoin="round"/>
</svg>
