<svg width="900" height="600" viewBox="0 0 900 600" fill="none" xmlns="http://www.w3.org/2000/svg">
  <rect width="900" height="600" rx="36" fill="#0B1211"/>
  <rect x="120" y="90" width="660" height="420" rx="28" fill="#0F172A" stroke="#1F2937"/>
  <rect x="170" y="140" width="220" height="18" rx="9" fill="#1F2937"/>
  <rect x="170" y="175" width="360" height="12" rx="6" fill="#1F2937"/>
  <rect x="170" y="215" width="520" height="10" rx="5" fill="#1F2937"/>
  <rect x="170" y="260" width="520" height="120" rx="20" fill="#111827" stroke="#1F2937"/>
  <rect x="170" y="400" width="520" height="70" rx="18" fill="#111827" stroke="#1F2937"/>
  <rect x="220" y="290" width="180" height="10" rx="5" fill="#334155"/>
  <rect x="220" y="310" width="300" height="8" rx="4" fill="#1F2937"/>
  <rect x="220" y="330" width="260" height="8" rx="4" fill="#1F2937"/>
  <rect x="220" y="420" width="140" height="10" rx="5" fill="#334155"/>
  <rect x="220" y="440" width="260" height="8" rx="4" fill="#1F2937"/>
  <circle cx="630" cy="230" r="48" fill="#038759"/>
  <path d="M610 230 L626 246 L654 210" stroke="#E6FFFB" stroke-width="6" stroke-linecap="round" stroke-linejoin="round"/>
  <rect x="560" y="410" width="130" height="34" rx="17" fill="#038759"/>
</svg>
