<svg width="900" height="600" viewBox="0 0 900 600" fill="none" xmlns="http://www.w3.org/2000/svg">
  <rect width="900" height="600" rx="36" fill="#0B1211"/>
  <rect x="80" y="80" width="740" height="440" rx="30" fill="#0F172A" stroke="#1F2937"/>
  <rect x="130" y="130" width="200" height="120" rx="20" fill="#111827" stroke="#1F2937"/>
  <rect x="350" y="130" width="200" height="120" rx="20" fill="#111827" stroke="#1F2937"/>
  <rect x="570" y="130" width="200" height="120" rx="20" fill="#111827" stroke="#1F2937"/>
  <rect x="130" y="280" width="640" height="180" rx="24" fill="#111827" stroke="#1F2937"/>
  <path d="M230 190 H320" stroke="#038759" stroke-width="6" stroke-linecap="round"/>
  <path d="M450 190 H540" stroke="#038759" stroke-width="6" stroke-linecap="round"/>
  <circle cx="230" cy="190" r="12" fill="#038759"/>
  <circle cx="450" cy="190" r="12" fill="#038759"/>
  <circle cx="670" cy="190" r="12" fill="#038759"/>
  <rect x="180" y="170" width="100" height="12" rx="6" fill="#334155"/>
  <rect x="400" y="170" width="100" height="12" rx="6" fill="#334155"/>
  <rect x="620" y="170" width="100" height="12" rx="6" fill="#334155"/>
  <rect x="180" y="320" width="220" height="12" rx="6" fill="#334155"/>
  <rect x="180" y="350" width="300" height="10" rx="5" fill="#1F2937"/>
  <rect x="180" y="380" width="260" height="10" rx="5" fill="#1F2937"/>
  <rect x="520" y="320" width="200" height="12" rx="6" fill="#334155"/>
  <rect x="520" y="350" width="160" height="10" rx="5" fill="#1F2937"/>
  <rect x="520" y="380" width="190" height="10" rx="5" fill="#1F2937"/>
</svg>
