<svg width="900" height="600" viewBox="0 0 900 600" fill="none" xmlns="http://www.w3.org/2000/svg">
  <rect width="900" height="600" rx="36" fill="#0B1211"/>
  <rect x="60" y="70" width="780" height="460" rx="28" fill="#0F172A" stroke="#1F2937"/>
  <rect x="100" y="120" width="240" height="20" rx="10" fill="#1F2937"/>
  <rect x="100" y="160" width="320" height="16" rx="8" fill="#1F2937"/>
  <rect x="100" y="210" width="700" height="70" rx="18" fill="#111827" stroke="#1F2937"/>
  <rect x="100" y="300" width="700" height="70" rx="18" fill="#111827" stroke="#1F2937"/>
  <rect x="100" y="390" width="700" height="70" rx="18" fill="#111827" stroke="#1F2937"/>
  <circle cx="140" cy="245" r="16" fill="#038759"/>
  <path d="M133 245 L139 251 L149 238" stroke="#E6FFFB" stroke-width="3" stroke-linecap="round" stroke-linejoin="round"/>
  <circle cx="140" cy="335" r="16" fill="#038759"/>
  <path d="M133 335 L139 341 L149 328" stroke="#E6FFFB" stroke-width="3" stroke-linecap="round" stroke-linejoin="round"/>
  <circle cx="140" cy="425" r="16" fill="#038759"/>
  <path d="M133 425 L139 431 L149 418" stroke="#E6FFFB" stroke-width="3" stroke-linecap="round" stroke-linejoin="round"/>
  <rect x="190" y="230" width="320" height="10" rx="5" fill="#334155"/>
  <rect x="190" y="250" width="420" height="8" rx="4" fill="#1F2937"/>
  <rect x="190" y="320" width="280" height="10" rx="5" fill="#334155"/>
  <rect x="190" y="340" width="380" height="8" rx="4" fill="#1F2937"/>
  <rect x="190" y="410" width="260" height="10" rx="5" fill="#334155"/>
  <rect x="190" y="430" width="360" height="8" rx="4" fill="#1F2937"/>
  <rect x="620" y="215" width="160" height="40" rx="20" fill="#038759"/>
  <rect x="620" y="305" width="160" height="40" rx="20" fill="#0F766E"/>
  <rect x="620" y="395" width="160" height="40" rx="20" fill="#065F46"/>
</svg>
